<?xml version="1.0" encoding="UTF-8" standalone="no"?>
<svg width="20px" height="19px" viewBox="0 0 20 19" version="1.1" xmlns="http://www.w3.org/2000/svg" xmlns:xlink="http://www.w3.org/1999/xlink">
    <!-- Generator: Sketch 3.6 (26304) - http://www.bohemiancoding.com/sketch -->
    <title>searchIcon</title>
    <desc>Created with Sketch.</desc>
    <defs></defs>
    <g id="Page-1" stroke="none" stroke-width="1" fill="none" fill-rule="evenodd">
        <g id="Artboard-32" transform="translate(-33.000000, -97.000000)" fill="#FFFFFF">
            <g id="tool" transform="translate(33.000000, 97.000000)">
                <g id="Capa_1">
                    <g id="Group">
                        <path d="M19.1992113,15.7282714 L14.703448,11.4 C14.0335767,12.4029083 13.1470654,13.2558955 12.1052632,13.9007972 L16.6013899,18.2290685 C17.3191612,18.9198874 18.4829344,18.9198874 19.1991709,18.2290685 C19.9169825,17.5393771 19.9169825,16.4190514 19.1992113,15.7282714 L19.1992113,15.7282714 Z" id="Shape"></path>
                        <path d="M14.6974282,7.07440099 C14.6974282,3.16766603 11.407078,0 7.3487545,0 C3.2905118,0 0,3.16766603 0,7.07440099 C0,10.981136 3.2905118,14.1486465 7.3487545,14.1486465 C11.407078,14.1486465 14.6974282,10.981136 14.6974282,7.07440099 L14.6974282,7.07440099 Z M7.3487545,12.3799976 C4.30949494,12.3799976 1.83723911,10.0002337 1.83723911,7.07443987 C1.83723911,4.148646 4.30949494,1.76868773 7.3487545,1.76868773 C10.3879333,1.76868773 12.860391,4.148646 12.860391,7.07443987 C12.860391,10.0002337 10.3879333,12.3799976 7.3487545,12.3799976 L7.3487545,12.3799976 Z" id="Shape"></path>
                        <path d="M3.15789474,7.16667883 L4.38253233,7.16667883 C4.38253233,5.54138035 5.75628153,4.21903443 7.44457059,4.21903443 L7.44457059,3.04 C5.08120016,3.04 3.15789474,4.89150202 3.15789474,7.16667883 L3.15789474,7.16667883 Z" id="Shape"></path>
                    </g>
                </g>
            </g>
        </g>
    </g>
</svg>